<svg xmlns="http://www.w3.org/2000/svg" width="87.145" height="17.38" viewBox="0 0 87.145 17.38">
  <g id="dumo-logo" transform="translate(-268.015 -24.731)">
    <g id="dumo-x" transform="translate(268.015 24.731)">
      <path id="Path_1403" data-name="Path 1403" d="M39.548,2.581A7.844,7.844,0,0,0,33.682.144H26.66V5.2h7.019a3.138,3.138,0,0,1,2.433,1.052,3.916,3.916,0,0,1,.952,2.729,3.911,3.911,0,0,1-.957,2.727,3.138,3.138,0,0,1-2.429,1.06H31.742V8.313H26.66v9.143h7.019a7.851,7.851,0,0,0,5.865-2.436,8.318,8.318,0,0,0,2.346-6.048,9.107,9.107,0,0,0-2.343-6.391Z" transform="translate(-20.405 -0.101)" fill="#2a54c7"/>
      <path id="Path_1404" data-name="Path 1404" d="M116.735,31.073a8.268,8.268,0,0,1-9.976,0,5.562,5.562,0,0,1-1.912-4.388V20.09h4.845v6.074q0,1.892,2.058,1.89t2.048-1.89V20.09h4.835v6.595A5.519,5.519,0,0,1,116.735,31.073Z" transform="translate(-80.247 -15.374)" fill="#2a54c7"/>
      <path id="Path_1405" data-name="Path 1405" d="M280.433,14.837a9.027,9.027,0,0,1-12.477,0,8.321,8.321,0,0,1-2.544-6.184,8.324,8.324,0,0,1,2.546-6.177,9.026,9.026,0,0,1,12.477,0,8.324,8.324,0,0,1,2.543,6.177,8.322,8.322,0,0,1-2.546,6.182Zm-9.136-3.3a4.093,4.093,0,1,0-1.149-2.888,3.9,3.9,0,0,0,1.15,2.886Z" transform="translate(-203.14 0.026)" fill="#2a54c7"/>
      <rect id="Rectangle_301" data-name="Rectangle 301" width="5.082" height="3.109" transform="translate(0 5.099)" fill="#2a54c7"/>
      <path id="Path_1406" data-name="Path 1406" d="M194.557,11.68V26.29h-4.84V18.033l-3.774,6.35h-.434l-3.777-6.351V26.29H176.89V11.68h4.84l3.989,4.56,3.989-4.56Z" transform="translate(-135.388 -8.935)" fill="#2a54c7"/>
      <path id="Path_7212" data-name="Path 7212" d="M5.129-137.337a1.725,1.725,0,0,0,.134.683,1.7,1.7,0,0,0,.37.549,1.762,1.762,0,0,0,.549.368,1.69,1.69,0,0,0,.675.134,1.69,1.69,0,0,0,.675-.134,1.74,1.74,0,0,0,.549-.37,1.715,1.715,0,0,0,.37-.557,1.779,1.779,0,0,0,.134-.694,1.745,1.745,0,0,0-.134-.686,1.692,1.692,0,0,0-.37-.551,1.726,1.726,0,0,0-.549-.365,1.722,1.722,0,0,0-.675-.132,1.692,1.692,0,0,0-.675.134,1.763,1.763,0,0,0-.549.368,1.685,1.685,0,0,0-.37.554A1.793,1.793,0,0,0,5.129-137.337Zm-.329,0a2.009,2.009,0,0,1,.165-.815,2.054,2.054,0,0,1,.444-.65,2.061,2.061,0,0,1,.653-.429,2.039,2.039,0,0,1,.8-.156,2.044,2.044,0,0,1,.793.156,2.077,2.077,0,0,1,.656.429,2.039,2.039,0,0,1,.444.642,1.957,1.957,0,0,1,.165.8,2.009,2.009,0,0,1-.165.815,2.054,2.054,0,0,1-.444.651,2.053,2.053,0,0,1-.656.429,2.044,2.044,0,0,1-.793.156,2.038,2.038,0,0,1-.8-.156,2.086,2.086,0,0,1-.653-.429,2.039,2.039,0,0,1-.444-.642A1.957,1.957,0,0,1,4.8-137.337Zm1.624-.126H6.83q.121,0,.238-.008a.641.641,0,0,0,.206-.048.318.318,0,0,0,.143-.115.39.39,0,0,0,.052-.22.361.361,0,0,0-.048-.195.3.3,0,0,0-.123-.112.514.514,0,0,0-.173-.048,1.662,1.662,0,0,0-.19-.011h-.51ZM6.1-138.517h.867a1.007,1.007,0,0,1,.631.162.624.624,0,0,1,.2.519.568.568,0,0,1-.181.467.818.818,0,0,1-.444.176l.681,1.043H7.495l-.647-1.016H6.424v1.015H6.1Z" transform="translate(78.229 139.402)" fill="#2a54c7"/>
    </g>
  </g>
</svg>
