<svg xmlns="http://www.w3.org/2000/svg" width="82.037" height="16.362" viewBox="0 0 82.037 16.362">
  <g id="dumo-x" transform="translate(0 0.004)">
    <path id="Path_1403" data-name="Path 1403" d="M38.792,2.438A7.384,7.384,0,0,0,33.271.144H26.66V4.9h6.608a2.954,2.954,0,0,1,2.29.991,3.686,3.686,0,0,1,.9,2.569,3.681,3.681,0,0,1-.9,2.567,2.954,2.954,0,0,1-2.286,1H31.444V7.834H26.66v8.607h6.608a7.391,7.391,0,0,0,5.522-2.293A7.83,7.83,0,0,0,41,8.455a8.574,8.574,0,0,0-2.206-6.016Z" transform="translate(-20.772 -0.108)" fill="#646b85"/>
    <path id="Path_1404" data-name="Path 1404" d="M116.038,30.429a7.784,7.784,0,0,1-9.391,0,5.236,5.236,0,0,1-1.8-4.131V20.09h4.561v5.718q0,1.781,1.937,1.779t1.928-1.779V20.09h4.552V26.3A5.2,5.2,0,0,1,116.038,30.429Z" transform="translate(-81.689 -15.654)" fill="#646b85"/>
    <path id="Path_1405" data-name="Path 1405" d="M279.553,13.966a8.5,8.5,0,0,1-11.745,0,7.833,7.833,0,0,1-2.395-5.821,7.836,7.836,0,0,1,2.4-5.815,8.5,8.5,0,0,1,11.745,0,7.836,7.836,0,0,1,2.393,5.815,7.833,7.833,0,0,1-2.4,5.819Zm-8.6-3.1a3.853,3.853,0,1,0-1.081-2.718,3.676,3.676,0,0,0,1.082,2.717Z" transform="translate(-206.79 0.022)" fill="#646b85"/>
    <rect id="Rectangle_301" data-name="Rectangle 301" width="4.784" height="2.926" transform="translate(0 4.796)" fill="#646b85"/>
    <path id="Path_1406" data-name="Path 1406" d="M193.521,11.68V25.433h-4.556V17.661l-3.553,5.978H185l-3.556-5.978v7.773H176.89V11.68h4.556l3.755,4.292,3.755-4.292Z" transform="translate(-137.821 -9.1)" fill="#646b85"/>
    <path id="Path_7212" data-name="Path 7212" d="M5.11-137.457a1.624,1.624,0,0,0,.126.643,1.6,1.6,0,0,0,.349.516,1.659,1.659,0,0,0,.516.346,1.592,1.592,0,0,0,.635.126,1.592,1.592,0,0,0,.635-.126,1.638,1.638,0,0,0,.516-.349,1.614,1.614,0,0,0,.349-.524,1.675,1.675,0,0,0,.126-.654,1.643,1.643,0,0,0-.126-.646,1.593,1.593,0,0,0-.349-.519,1.624,1.624,0,0,0-.516-.343,1.621,1.621,0,0,0-.635-.124,1.592,1.592,0,0,0-.635.126,1.66,1.66,0,0,0-.516.346,1.586,1.586,0,0,0-.349.522A1.688,1.688,0,0,0,5.11-137.457Zm-.31,0a1.891,1.891,0,0,1,.155-.767,1.933,1.933,0,0,1,.418-.612,1.94,1.94,0,0,1,.615-.4,1.919,1.919,0,0,1,.749-.147,1.924,1.924,0,0,1,.746.147,1.955,1.955,0,0,1,.617.4,1.919,1.919,0,0,1,.418.6,1.843,1.843,0,0,1,.155.757,1.891,1.891,0,0,1-.155.767,1.934,1.934,0,0,1-.418.612,1.932,1.932,0,0,1-.617.4,1.924,1.924,0,0,1-.746.147,1.918,1.918,0,0,1-.749-.147,1.963,1.963,0,0,1-.615-.4,1.919,1.919,0,0,1-.418-.6A1.842,1.842,0,0,1,4.8-137.457Zm1.529-.119h.382q.114,0,.224-.008a.6.6,0,0,0,.194-.045.3.3,0,0,0,.134-.108.367.367,0,0,0,.049-.207.34.34,0,0,0-.045-.183.287.287,0,0,0-.116-.106.483.483,0,0,0-.163-.045,1.565,1.565,0,0,0-.179-.01H6.329Zm-.31-.992h.816a.948.948,0,0,1,.594.152.587.587,0,0,1,.191.488.535.535,0,0,1-.17.439.77.77,0,0,1-.418.165l.641.982H7.337l-.609-.956h-.4v.956h-.31Z" transform="translate(73.363 139.397)" fill="#646b85"/>
  </g>
</svg>
