<svg xmlns="http://www.w3.org/2000/svg" width="156.684" height="17.38" viewBox="0 0 156.684 17.38">
  <g id="dumo-account-logo" transform="translate(-268.015 -24.731)">
    <g id="dumo-x" transform="translate(268.015 24.731)">
      <path id="Path_1403" data-name="Path 1403" d="M39.548,2.581A7.844,7.844,0,0,0,33.682.144H26.66V5.2h7.019a3.138,3.138,0,0,1,2.433,1.052,3.916,3.916,0,0,1,.952,2.729,3.911,3.911,0,0,1-.957,2.727,3.138,3.138,0,0,1-2.429,1.06H31.742V8.313H26.66v9.143h7.019a7.851,7.851,0,0,0,5.865-2.436,8.318,8.318,0,0,0,2.346-6.048,9.107,9.107,0,0,0-2.343-6.391Z" transform="translate(-20.405 -0.101)" fill="#2a54c7"/>
      <path id="Path_1404" data-name="Path 1404" d="M116.735,31.073a8.268,8.268,0,0,1-9.976,0,5.562,5.562,0,0,1-1.912-4.388V20.09h4.845v6.074q0,1.892,2.058,1.89t2.048-1.89V20.09h4.835v6.595A5.519,5.519,0,0,1,116.735,31.073Z" transform="translate(-80.247 -15.374)" fill="#2a54c7"/>
      <path id="Path_1405" data-name="Path 1405" d="M280.433,14.837a9.027,9.027,0,0,1-12.477,0,8.321,8.321,0,0,1-2.544-6.184,8.324,8.324,0,0,1,2.546-6.177,9.026,9.026,0,0,1,12.477,0,8.324,8.324,0,0,1,2.543,6.177,8.322,8.322,0,0,1-2.546,6.182Zm-9.136-3.3a4.093,4.093,0,1,0-1.149-2.888,3.9,3.9,0,0,0,1.15,2.886Z" transform="translate(-203.14 0.026)" fill="#2a54c7"/>
      <rect id="Rectangle_301" data-name="Rectangle 301" width="5.082" height="3.109" transform="translate(0 5.099)" fill="#2a54c7"/>
      <path id="Path_1406" data-name="Path 1406" d="M194.557,11.68V26.29h-4.84V18.033l-3.774,6.35h-.434l-3.777-6.351V26.29H176.89V11.68h4.84l3.989,4.56,3.989-4.56Z" transform="translate(-135.388 -8.935)" fill="#2a54c7"/>
      <path id="Path_7212" data-name="Path 7212" d="M5.129-137.337a1.725,1.725,0,0,0,.134.683,1.7,1.7,0,0,0,.37.549,1.762,1.762,0,0,0,.549.368,1.69,1.69,0,0,0,.675.134,1.69,1.69,0,0,0,.675-.134,1.74,1.74,0,0,0,.549-.37,1.715,1.715,0,0,0,.37-.557,1.779,1.779,0,0,0,.134-.694,1.745,1.745,0,0,0-.134-.686,1.692,1.692,0,0,0-.37-.551,1.726,1.726,0,0,0-.549-.365,1.722,1.722,0,0,0-.675-.132,1.692,1.692,0,0,0-.675.134,1.763,1.763,0,0,0-.549.368,1.685,1.685,0,0,0-.37.554A1.793,1.793,0,0,0,5.129-137.337Zm-.329,0a2.009,2.009,0,0,1,.165-.815,2.054,2.054,0,0,1,.444-.65,2.061,2.061,0,0,1,.653-.429,2.039,2.039,0,0,1,.8-.156,2.044,2.044,0,0,1,.793.156,2.077,2.077,0,0,1,.656.429,2.039,2.039,0,0,1,.444.642,1.957,1.957,0,0,1,.165.8,2.009,2.009,0,0,1-.165.815,2.054,2.054,0,0,1-.444.651,2.053,2.053,0,0,1-.656.429,2.044,2.044,0,0,1-.793.156,2.038,2.038,0,0,1-.8-.156,2.086,2.086,0,0,1-.653-.429,2.039,2.039,0,0,1-.444-.642A1.957,1.957,0,0,1,4.8-137.337Zm1.624-.126H6.83q.121,0,.238-.008a.641.641,0,0,0,.206-.048.318.318,0,0,0,.143-.115.39.39,0,0,0,.052-.22.361.361,0,0,0-.048-.195.3.3,0,0,0-.123-.112.514.514,0,0,0-.173-.048,1.662,1.662,0,0,0-.19-.011h-.51ZM6.1-138.517h.867a1.007,1.007,0,0,1,.631.162.624.624,0,0,1,.2.519.568.568,0,0,1-.181.467.818.818,0,0,1-.444.176l.681,1.043H7.495l-.647-1.016H6.424v1.015H6.1Z" transform="translate(78.229 139.402)" fill="#2a54c7"/>
    </g>
    <path id="Path_14529" data-name="Path 14529" d="M.14,12.722H2L3.341,9.229H8.8l1.346,3.492H12L7.016-.12H5.124ZM3.923,7.538,6.07,1.844,8.216,7.538Zm16.243-3.62A5.154,5.154,0,0,0,17.638,3.3,4.693,4.693,0,0,0,12.8,8.138a4.69,4.69,0,0,0,4.82,4.8,5.027,5.027,0,0,0,2.583-.618V10.539a4.1,4.1,0,0,1-2.437.728A3.016,3.016,0,0,1,14.6,8.138a3.027,3.027,0,0,1,3.165-3.165,4.494,4.494,0,0,1,2.4.709Zm8.968,0A5.154,5.154,0,0,0,26.606,3.3a4.693,4.693,0,0,0-4.838,4.838,4.69,4.69,0,0,0,4.82,4.8,5.027,5.027,0,0,0,2.583-.618V10.539a4.1,4.1,0,0,1-2.437.728,3.016,3.016,0,0,1-3.165-3.129,3.027,3.027,0,0,1,3.165-3.165,4.494,4.494,0,0,1,2.4.709ZM35.5,3.3a4.7,4.7,0,0,0-4.766,4.82,4.766,4.766,0,1,0,9.531,0A4.7,4.7,0,0,0,35.5,3.3Zm0,1.673A3.008,3.008,0,0,1,38.466,8.12a2.97,2.97,0,1,1-5.93,0A3.008,3.008,0,0,1,35.5,4.973Zm13.515,6.366v1.382h1.728v-9.2H48.979V8.193c0,1.364-.673,3.129-2.583,3.129a2.1,2.1,0,0,1-2.165-2.31V3.518H42.467V9.084c0,2.437,1.473,3.856,3.565,3.856A3.115,3.115,0,0,0,49.016,11.339ZM55.6,4.9V3.518H53.872v9.2h1.764V8.047c0-1.364.673-3.129,2.583-3.129a2.1,2.1,0,0,1,2.165,2.31v5.493h1.764V7.156c0-2.437-1.473-3.856-3.565-3.856A3.115,3.115,0,0,0,55.6,4.9Zm14.079,6.112a2.247,2.247,0,0,1-1.091.291c-1.019,0-1.492-.473-1.492-1.51v-4.8h2.365V3.518H67.1V.808l-1.71.546V3.518H63.949V4.991h1.382v5.02a2.656,2.656,0,0,0,2.874,2.929,2.961,2.961,0,0,0,1.473-.309Z" transform="translate(355.02 27.011)" fill="#2a54c7"/>
  </g>
</svg>
