<svg xmlns="http://www.w3.org/2000/svg" width="40.209" height="36" viewBox="0 0 40.209 36">
  <g id="ic-welcome-email" transform="translate(0 0)">
    <path id="Path_8882" data-name="Path 8882" d="M288.932,322.019h-.014l-8.077,3.449-11.051,4.719a.357.357,0,0,1-.273,0l-11.4-4.73-8.275-3.433-.013-.006h-.014a.493.493,0,0,0-.493.492V343.9a.493.493,0,0,0,.493.493h39.119a.493.493,0,0,0,.492-.493V322.512A.493.493,0,0,0,288.932,322.019Z" transform="translate(-249.215 -308.393)" fill="#fff"/>
    <path id="Path_8883" data-name="Path 8883" d="M292.337,177.082a.07.07,0,0,1-.04-.013l-19.458-13.551a.353.353,0,0,0-.4,0l-19.318,13.55a.07.07,0,1,1-.081-.115l19.318-13.55a.494.494,0,0,1,.564,0l19.458,13.551a.07.07,0,0,1-.04.128Z" transform="translate(-252.586 -163.315)" fill="#3f3d56"/>
    <path id="Path_8884" data-name="Path 8884" d="M19.063,20.479,37.5,6.817,56.072,21.451,38.447,31.9l-9.569-2.181Z" transform="translate(-17.426 -6.232)" fill="#e6e6e6"/>
    <path id="Path_8885" data-name="Path 8885" d="M289.385,528.362h-9.107a.426.426,0,0,1,0-.851h9.108a.426.426,0,0,1,0,.851Z" transform="translate(-277.125 -496.241)" fill="#374072"/>
    <path id="Path_8886" data-name="Path 8886" d="M283.545,507.056h-3.267a.425.425,0,1,1,0-.851h3.269a.425.425,0,0,1,0,.851Z" transform="translate(-277.125 -476.765)" fill="#374072"/>
    <path id="Path_8887" data-name="Path 8887" d="M361.682,204.779a.532.532,0,0,1-.2-.04l-11.369-4.717V185.256a.493.493,0,0,1,.492-.493h21.811a.493.493,0,0,1,.492.493v14.776l-.021.009-11,4.7A.536.536,0,0,1,361.682,204.779Z" transform="translate(-341.352 -182.922)" fill="#fbb56c"/>
    <path id="Path_8888" data-name="Path 8888" d="M287.7,322.019h-.014l-8.077,3.449-11.051,4.719a.357.357,0,0,1-.273,0l-11.4-4.73-8.275-3.433-.013-.006h-.014a.493.493,0,0,0-.493.492V343.9a.493.493,0,0,0,.493.492H287.7a.493.493,0,0,0,.492-.492V322.512A.493.493,0,0,0,287.7,322.019Zm.352,21.881a.352.352,0,0,1-.352.352H248.584a.352.352,0,0,1-.352-.352V322.512a.353.353,0,0,1,.338-.352l8.316,3.45,11.347,4.708a.5.5,0,0,0,.383,0l11-4.7,8.105-3.461a.353.353,0,0,1,.338.352Z" transform="translate(-248.091 -308.393)" fill="#3f3d56"/>
    <path id="Path_8889" data-name="Path 8889" d="M375.87,237.064h-7.739a.563.563,0,1,1,0-1.126h7.739a.563.563,0,0,1,0,1.126Z" transform="translate(-357.31 -229.703)" fill="#fff"/>
    <path id="Path_8890" data-name="Path 8890" d="M371.86,209.2h-3.729a.563.563,0,1,1,0-1.126h3.729a.563.563,0,0,1,0,1.126Z" transform="translate(-357.31 -204.234)" fill="#fff"/>
    <path id="Path_8891" data-name="Path 8891" d="M418.439,302.619h-11.82a.563.563,0,1,1,0-1.126h11.82a.563.563,0,1,1,0,1.126Z" transform="translate(-392.493 -289.629)" fill="#fff"/>
    <path id="Path_8892" data-name="Path 8892" d="M418.439,332.938h-11.82a.563.563,0,0,1,0-1.126h11.82a.563.563,0,0,1,0,1.126Z" transform="translate(-392.493 -317.345)" fill="#fff"/>
  </g>
</svg>
