<svg xmlns="http://www.w3.org/2000/svg" xmlns:xlink="http://www.w3.org/1999/xlink" width="270.051" height="33.006" viewBox="0 0 270.051 33.006">
  <defs>
    <linearGradient id="linear-gradient" x2="3.142" y2="1" gradientUnits="objectBoundingBox">
      <stop offset="0" stop-color="#f07d22"/>
      <stop offset="1" stop-color="#d90809"/>
    </linearGradient>
    <linearGradient id="linear-gradient-6" x1="-0.001" y1="-0.833" x2="1" y2="-0.833" gradientUnits="objectBoundingBox">
      <stop offset="0" stop-color="#fb7912"/>
      <stop offset="1" stop-color="#d90809"/>
    </linearGradient>
  </defs>
  <g id="pali_long-logo" data-name="pali=long-logo" transform="translate(-553.943 -112.876)">
    <path id="Path_14546" data-name="Path 14546" d="M5.88-.038A3.463,3.463,0,0,0,2.24,2.636c-.266,1.582.868,2.184,2.072,2.758,1.316.616,2.044,1.036,1.876,1.96A2.279,2.279,0,0,1,3.808,9.02,3.7,3.7,0,0,1,1.246,7.914L.994,9.3a4.234,4.234,0,0,0,2.646.854A3.651,3.651,0,0,0,7.49,7.312c.294-1.666-.9-2.268-2.24-2.9-1.218-.56-1.876-.98-1.722-1.848A2.035,2.035,0,0,1,5.712,1.11a3.607,3.607,0,0,1,2.226.77L8.176.606A4.163,4.163,0,0,0,5.88-.038Zm7.238,2.814a4.324,4.324,0,0,0-4.158,3.7,2.9,2.9,0,0,0,3.01,3.7,4.835,4.835,0,0,0,2.688-.7l.224-1.246a4.341,4.341,0,0,1-2.548.84,1.952,1.952,0,0,1-2.17-2.31H15.54a4.367,4.367,0,0,0,.2-.714A2.54,2.54,0,0,0,13.118,2.776ZM12.894,3.84A1.6,1.6,0,0,1,14.6,5.772H10.374A2.7,2.7,0,0,1,12.894,3.84Zm4.2,4.536c-.238,1.344.5,1.792,1.414,1.792a1.889,1.889,0,0,0,.616-.1l.182-1.078a1.246,1.246,0,0,1-.462.084c-.532,0-.63-.364-.532-.9L19.726.13H18.55Zm3.948,0c-.238,1.344.5,1.792,1.414,1.792a1.889,1.889,0,0,0,.616-.1l.182-1.078a1.246,1.246,0,0,1-.462.084c-.532,0-.63-.364-.532-.9L23.674.13H22.5ZM33.572,10h1.134l1.246-7.07h-1.19l-.2,1.12a2.325,2.325,0,0,0-2.2-1.288,4.291,4.291,0,0,0-4,3.71c-.378,2.128.812,3.7,2.7,3.7a3.568,3.568,0,0,0,2.7-1.33Zm-2.114-.924a2.014,2.014,0,0,1-1.9-2.6,3.059,3.059,0,0,1,2.814-2.618c1.2,0,2.156.98,1.862,2.618A3.015,3.015,0,0,1,31.458,9.076Zm7.91-4.956.21-1.19H38.416L37.17,10h1.19l.63-3.64a2.834,2.834,0,0,1,2.562-2.506c.994,0,1.638.672,1.428,1.89L42.224,10h1.19l.756-4.312c.336-1.806-.588-2.926-2.2-2.926A3.009,3.009,0,0,0,39.368,4.12Zm5.068,8.652a2.116,2.116,0,0,0,.98.2A2.755,2.755,0,0,0,47.894,11.2L52.7,2.93H51.408L48.3,8.488,47.11,2.93H45.78L47.474,9.9l-.49.882c-.462.826-.882,1.162-1.5,1.162a1.48,1.48,0,0,1-.868-.238Zm12.138-3.92a1.917,1.917,0,0,1-.882.21c-.784,0-1.134-.392-.98-1.232L55.4,3.938h1.834l.168-.994H55.566L55.93.872l-1.2.364-.308,1.708H53.312l-.182.994h1.078L53.494,7.97c-.238,1.4.448,2.2,1.764,2.2a2.522,2.522,0,0,0,1.12-.224ZM59.78.13,58.044,10h1.19l.658-3.752a2.689,2.689,0,0,1,2.534-2.394c.98,0,1.638.672,1.428,1.89L63.1,10h1.19l.756-4.312c.336-1.806-.616-2.926-2.2-2.926A3.138,3.138,0,0,0,60.284,4.05L60.956.13Zm9.24-.154A.97.97,0,0,0,68.1.76a.643.643,0,0,0,.63.8.983.983,0,0,0,.924-.8A.632.632,0,0,0,69.02-.024ZM66.64,10h1.19l1.246-7.07h-1.19Zm5.852-5.88.21-1.19H71.54L70.294,10h1.19l.63-3.64a2.834,2.834,0,0,1,2.562-2.506c.994,0,1.638.672,1.428,1.89L75.348,10h1.19l.756-4.312c.336-1.806-.588-2.926-2.2-2.926A3.009,3.009,0,0,0,72.492,4.12Zm11.83,4.718-.126.728a2.88,2.88,0,0,1-2.912,2.31,3.423,3.423,0,0,1-2.548-1.064l-.224,1.26a4.049,4.049,0,0,0,2.632.9,4.11,4.11,0,0,0,4.172-3.3L86.492,2.93H85.316l-.2,1.12a2.282,2.282,0,0,0-2.17-1.288,4.291,4.291,0,0,0-4,3.71c-.378,2.128.812,3.7,2.7,3.7A3.51,3.51,0,0,0,84.322,8.838Zm-2.282.238a2.014,2.014,0,0,1-1.9-2.6A3.059,3.059,0,0,1,82.95,3.854c1.2,0,2.114.98,1.82,2.618A2.975,2.975,0,0,1,82.04,9.076Zm14.616-.238L96.46,10h1.134L99.33.13H98.14l-.686,3.92a2.348,2.348,0,0,0-2.2-1.288,4.291,4.291,0,0,0-4,3.71c-.378,2.128.812,3.7,2.7,3.7A3.568,3.568,0,0,0,96.656,8.838Zm-2.31.238a2.014,2.014,0,0,1-1.9-2.6,3.059,3.059,0,0,1,2.814-2.618c1.2,0,2.156.98,1.862,2.618A3.015,3.015,0,0,1,94.346,9.076Zm10.038-6.3a4.443,4.443,0,0,0-4.284,3.7,2.945,2.945,0,0,0,2.982,3.7,4.481,4.481,0,0,0,4.3-3.7A2.959,2.959,0,0,0,104.384,2.776Zm-.2,1.12a2.022,2.022,0,0,1,1.974,2.576,3.07,3.07,0,0,1-2.884,2.576A2.016,2.016,0,0,1,101.3,6.472,3.07,3.07,0,0,1,104.188,3.9ZM109.9,10h1.176l2.8-5.4.91,5.4h1.162l3.6-7.07H118.3L115.6,8.4l-.854-5.46H113.6L110.81,8.4l-.77-5.474h-1.232Zm12.068-5.88.21-1.19h-1.162L119.77,10h1.19l.63-3.64a2.834,2.834,0,0,1,2.562-2.506c.994,0,1.638.672,1.428,1.89L124.824,10h1.19l.756-4.312c.336-1.806-.588-2.926-2.2-2.926A3.009,3.009,0,0,0,121.968,4.12Zm6.58,4.256c-.238,1.344.5,1.792,1.414,1.792a1.889,1.889,0,0,0,.616-.1l.182-1.078a1.246,1.246,0,0,1-.462.084c-.532,0-.63-.364-.532-.9L131.18.13H130Zm7.966-5.6a4.443,4.443,0,0,0-4.284,3.7,2.945,2.945,0,0,0,2.982,3.7,4.481,4.481,0,0,0,4.3-3.7A2.959,2.959,0,0,0,136.514,2.776Zm-.2,1.12a2.022,2.022,0,0,1,1.974,2.576,3.07,3.07,0,0,1-2.884,2.576,2.016,2.016,0,0,1-1.974-2.576A3.07,3.07,0,0,1,136.318,3.9Zm9.688,6.1h1.134l1.246-7.07H147.2L147,4.05a2.325,2.325,0,0,0-2.2-1.288,4.291,4.291,0,0,0-4,3.71c-.378,2.128.812,3.7,2.7,3.7a3.568,3.568,0,0,0,2.7-1.33Zm-2.114-.924a2.014,2.014,0,0,1-1.9-2.6A3.059,3.059,0,0,1,144.8,3.854c1.2,0,2.156.98,1.862,2.618A3.015,3.015,0,0,1,143.892,9.076Zm11.172-.238-.2,1.162H156L157.738.13h-1.19l-.686,3.92a2.348,2.348,0,0,0-2.2-1.288,4.291,4.291,0,0,0-4,3.71c-.378,2.128.812,3.7,2.7,3.7A3.568,3.568,0,0,0,155.064,8.838Zm-2.31.238a2.014,2.014,0,0,1-1.9-2.6,3.059,3.059,0,0,1,2.814-2.618c1.2,0,2.156.98,1.862,2.618A3.015,3.015,0,0,1,152.754,9.076ZM163.73,10h1.134l1.246-7.07h-1.19l-.2,1.12a2.325,2.325,0,0,0-2.2-1.288,4.291,4.291,0,0,0-4,3.71c-.378,2.128.812,3.7,2.7,3.7a3.568,3.568,0,0,0,2.7-1.33Zm-2.114-.924a2.014,2.014,0,0,1-1.9-2.6,3.059,3.059,0,0,1,2.814-2.618c1.2,0,2.156.98,1.862,2.618A3.015,3.015,0,0,1,161.616,9.076Zm7.056-.238a2.367,2.367,0,0,0,2.24,1.33,4.316,4.316,0,0,0,4.018-3.7c.378-2.142-.826-3.71-2.716-3.71a3.511,3.511,0,0,0-2.66,1.288L170.24.13h-1.176L167.328,10h1.134Zm2.24.238c-1.19,0-2.142-.98-1.848-2.6a2.992,2.992,0,0,1,2.772-2.618,2.007,2.007,0,0,1,1.89,2.618A3.058,3.058,0,0,1,170.912,9.076Zm5.474-.7c-.238,1.344.5,1.792,1.414,1.792a1.889,1.889,0,0,0,.616-.1l.182-1.078a1.246,1.246,0,0,1-.462.084c-.532,0-.63-.364-.532-.9L179.018.13h-1.176Zm7.826-5.6a4.324,4.324,0,0,0-4.158,3.7,2.9,2.9,0,0,0,3.01,3.7,4.835,4.835,0,0,0,2.688-.7l.224-1.246a4.341,4.341,0,0,1-2.548.84,1.952,1.952,0,0,1-2.17-2.31h5.376a4.366,4.366,0,0,0,.2-.714A2.54,2.54,0,0,0,184.212,2.776Zm-.224,1.064A1.6,1.6,0,0,1,185.7,5.772h-4.228A2.7,2.7,0,0,1,183.988,3.84ZM4.928,28.852a1.917,1.917,0,0,1-.882.21c-.784,0-1.134-.392-.98-1.232l.686-3.892H5.586l.168-.994H3.92l.364-2.072-1.2.364-.308,1.708H1.666l-.182.994H2.562L1.848,27.97c-.238,1.4.448,2.2,1.764,2.2a2.522,2.522,0,0,0,1.12-.224Zm5.726-6.076a4.443,4.443,0,0,0-4.284,3.7,2.945,2.945,0,0,0,2.982,3.7,4.481,4.481,0,0,0,4.3-3.7A2.959,2.959,0,0,0,10.654,22.776Zm-.2,1.12a2.022,2.022,0,0,1,1.974,2.576,3.07,3.07,0,0,1-2.884,2.576,2.016,2.016,0,0,1-1.974-2.576A3.07,3.07,0,0,1,10.458,23.9ZM23.66,30h1.134l1.246-7.07H24.85l-.2,1.12a2.325,2.325,0,0,0-2.2-1.288,4.291,4.291,0,0,0-4,3.71c-.378,2.128.812,3.7,2.7,3.7a3.568,3.568,0,0,0,2.7-1.33Zm-2.114-.924a2.014,2.014,0,0,1-1.9-2.6,3.059,3.059,0,0,1,2.814-2.618c1.2,0,2.156.98,1.862,2.618A3.015,3.015,0,0,1,21.546,29.076Zm7.91-4.956.21-1.19H28.5L27.258,30h1.19l.63-3.64a2.834,2.834,0,0,1,2.562-2.506c.994,0,1.638.672,1.428,1.89L32.312,30H33.5l.756-4.312c.336-1.806-.588-2.926-2.2-2.926A3.009,3.009,0,0,0,29.456,24.12Zm5.068,8.652a2.116,2.116,0,0,0,.98.2A2.755,2.755,0,0,0,37.982,31.2l4.8-8.274H41.5l-3.108,5.558L37.2,22.93h-1.33L37.562,29.9l-.49.882c-.462.826-.882,1.162-1.5,1.162a1.48,1.48,0,0,1-.868-.238Zm12.67-10a4.443,4.443,0,0,0-4.284,3.7,2.945,2.945,0,0,0,2.982,3.7,4.481,4.481,0,0,0,4.3-3.7A2.959,2.959,0,0,0,47.194,22.776ZM47,23.9a2.022,2.022,0,0,1,1.974,2.576,3.07,3.07,0,0,1-2.884,2.576,2.016,2.016,0,0,1-1.974-2.576A3.07,3.07,0,0,1,47,23.9Zm6.622.224.21-1.19H52.668L51.422,30h1.19l.63-3.64A2.834,2.834,0,0,1,55.8,23.854c.994,0,1.638.672,1.428,1.89L56.476,30h1.19l.756-4.312c.336-1.806-.588-2.926-2.2-2.926A3.009,3.009,0,0,0,53.62,24.12Zm10.57-1.344a4.324,4.324,0,0,0-4.158,3.7,2.9,2.9,0,0,0,3.01,3.7,4.835,4.835,0,0,0,2.688-.7l.224-1.246a4.341,4.341,0,0,1-2.548.84,1.952,1.952,0,0,1-2.17-2.31h5.376a4.367,4.367,0,0,0,.2-.714A2.54,2.54,0,0,0,64.19,22.776Zm-.224,1.064a1.6,1.6,0,0,1,1.708,1.932H61.446A2.7,2.7,0,0,1,63.966,23.84Zm3.36,7.812h.616l1.162-1.89a1.037,1.037,0,0,0,.168-.392.615.615,0,0,0-.63-.784.945.945,0,0,0-.924.784.667.667,0,0,0,.42.756ZM79.59,30h1.134l1.246-7.07H80.78l-.2,1.12a2.325,2.325,0,0,0-2.2-1.288,4.291,4.291,0,0,0-4,3.71c-.378,2.128.812,3.7,2.7,3.7a3.568,3.568,0,0,0,2.7-1.33Zm-2.114-.924a2.014,2.014,0,0,1-1.9-2.6,3.059,3.059,0,0,1,2.814-2.618c1.2,0,2.156.98,1.862,2.618A3.015,3.015,0,0,1,77.476,29.076Zm7.91-4.956.21-1.19H84.434L83.188,30h1.19l.63-3.64a2.834,2.834,0,0,1,2.562-2.506c.994,0,1.638.672,1.428,1.89L88.242,30h1.19l.756-4.312c.336-1.806-.588-2.926-2.2-2.926A3.009,3.009,0,0,0,85.386,24.12Zm5.068,8.652a2.116,2.116,0,0,0,.98.2A2.755,2.755,0,0,0,93.912,31.2l4.8-8.274H97.426l-3.108,5.558-1.19-5.558H91.8L93.492,29.9l-.49.882c-.462.826-.882,1.162-1.5,1.162a1.48,1.48,0,0,1-.868-.238Zm9.8-2.772h1.176l2.8-5.4.91,5.4H106.3l3.6-7.07h-1.246l-2.7,5.474-.854-5.46H103.95l-2.786,5.46-.77-5.474H99.162Zm11.606-9.87L110.124,30h1.19l.658-3.752a2.689,2.689,0,0,1,2.534-2.394c.98,0,1.638.672,1.428,1.89L115.178,30h1.19l.756-4.312c.336-1.806-.616-2.926-2.2-2.926a3.138,3.138,0,0,0-2.562,1.288l.672-3.92Zm11.032,2.646a4.324,4.324,0,0,0-4.158,3.7,2.9,2.9,0,0,0,3.01,3.7,4.835,4.835,0,0,0,2.688-.7l.224-1.246a4.341,4.341,0,0,1-2.548.84,1.952,1.952,0,0,1-2.17-2.31h5.376a4.366,4.366,0,0,0,.2-.714A2.54,2.54,0,0,0,122.892,22.776Zm-.224,1.064a1.6,1.6,0,0,1,1.708,1.932h-4.228A2.7,2.7,0,0,1,122.668,23.84Zm6.412-.91h-1.162L126.672,30h1.19l.63-3.556a2.717,2.717,0,0,1,2.618-2.492,1.574,1.574,0,0,1,.28.028l.21-1.176a2.591,2.591,0,0,0-.406-.042,2.674,2.674,0,0,0-2.338,1.484Zm6.818-.154a4.324,4.324,0,0,0-4.158,3.7,2.9,2.9,0,0,0,3.01,3.7,4.835,4.835,0,0,0,2.688-.7l.224-1.246a4.341,4.341,0,0,1-2.548.84,1.952,1.952,0,0,1-2.17-2.31h5.376a4.366,4.366,0,0,0,.2-.714A2.54,2.54,0,0,0,135.9,22.776Zm-.224,1.064a1.6,1.6,0,0,1,1.708,1.932h-4.228A2.7,2.7,0,0,1,135.674,23.84Zm4.592,3.528h1.064l1.4-7.224h-1.316Zm.336,1.218a.983.983,0,0,0-.924.784.645.645,0,0,0,.644.8.983.983,0,0,0,.924-.8A.634.634,0,0,0,140.6,28.586Z" transform="translate(637.104 112.914)" fill="#787879"/>
    <g id="line" transform="translate(622.104 112.914) rotate(90)">
      <line id="Line_3674" data-name="Line 3674" x2="32" fill="none" stroke="#d2d2d2" stroke-width="1"/>
    </g>
    <g id="Group_12477" data-name="Group 12477" transform="translate(1121.308 676.525)">
      <g id="Group_12480" data-name="Group 12480">
        <path id="Path_9176" data-name="Path 9176" d="M354.275,65.585H348.71v5.79H345V51.7h9.275C363.832,51.644,363.888,65.585,354.275,65.585Zm-5.565-3.373h5.565c4.722,0,4.722-6.97,0-6.97H348.71Z" transform="translate(-912.365 -612.852)" fill="url(#linear-gradient)"/>
        <path id="Path_9177" data-name="Path 9177" d="M387.649,61.737h3.317V75.621H387.7l-.169-2.024c-.787,1.63-2.979,2.417-4.5,2.417-4.1,0-7.139-2.473-7.139-7.364s3.148-7.308,7.252-7.252a5.073,5.073,0,0,1,4.441,2.249Zm-8.32,6.914a4,4,0,0,0,3.71,4.216h.393c5.4,0,5.4-8.376,0-8.376a3.913,3.913,0,0,0-4.1,3.766C379.329,68.37,379.329,68.538,379.329,68.651Z" transform="translate(-925.895 -617.099)" fill="url(#linear-gradient)"/>
        <path id="Path_9178" data-name="Path 9178" d="M411.173,51.7V71.319H407.8V51.7Z" transform="translate(-939.862 -612.852)" fill="url(#linear-gradient)"/>
        <path id="Path_9179" data-name="Path 9179" d="M422.648,53.524a2.024,2.024,0,0,1-4.048,0A2.024,2.024,0,0,1,422.648,53.524Zm-3.71,3.823V71.231h3.429V57.346Z" transform="translate(-944.591 -612.764)" fill="url(#linear-gradient)"/>
        <path id="Path_9180" data-name="Path 9180" d="M434.647,81.94a2.024,2.024,0,0,1-4.047,0A2.024,2.024,0,0,1,434.647,81.94Z" transform="translate(-949.846 -625.216)" fill="url(#linear-gradient)"/>
      </g>
      <path id="Path_14632" data-name="Path 14632" d="M285.8,93.657a15.684,15.684,0,0,1-10.6-4.179l1.636-1.757a13.16,13.16,0,0,0,18.051-.121l1.635,1.7a15.637,15.637,0,0,1-10.176,4.3Z" transform="translate(-811.72 -626.684)" fill="url(#linear-gradient-6)"/>
    </g>
  </g>
</svg>
