<svg xmlns="http://www.w3.org/2000/svg" width="19.977" height="19.977" viewBox="0 0 19.977 19.977">
  <g id="Group_351" data-name="Group 351" transform="translate(1.061 1.061)">
    <path id="Path_302" data-name="Path 302" d="M3441.178,5762.36" transform="translate(-3432.692 -5752.518)" fill="none" stroke="#b5b5b5" stroke-linecap="round" stroke-linejoin="round" stroke-width="1.5"/>
    <g id="Group_350" data-name="Group 350" transform="translate(0 0)">
      <path id="Path_303" data-name="Path 303" d="M3446.305,5760.517a10.163,10.163,0,0,1-8.928,5.854,9.267,9.267,0,0,1-4.615-1.239" transform="translate(-3428.45 -5751.589)" fill="none" stroke="#b5b5b5" stroke-linecap="round" stroke-linejoin="round" stroke-width="1.5"/>
      <path id="Path_304" data-name="Path 304" d="M3426.224,5763.485a11.606,11.606,0,0,1-2.156-2.968" transform="translate(-3424.068 -5751.589)" fill="none" stroke="#b5b5b5" stroke-linecap="round" stroke-linejoin="round" stroke-width="1.5"/>
      <path id="Path_305" data-name="Path 305" d="M3451.374,5751.211a11.07,11.07,0,0,1,4.312,4.616" transform="translate(-3437.831 -5746.899)" fill="none" stroke="#b5b5b5" stroke-linecap="round" stroke-linejoin="round" stroke-width="1.5"/>
      <path id="Path_306" data-name="Path 306" d="M3424.068,5754.567a10.163,10.163,0,0,1,8.927-5.855,9.086,9.086,0,0,1,2.068.24" transform="translate(-3424.068 -5745.639)" fill="none" stroke="#b5b5b5" stroke-linecap="round" stroke-linejoin="round" stroke-width="1.5"/>
      <path id="Path_307" data-name="Path 307" d="M3438.518,5760.488a2.49,2.49,0,1,0,3.521-3.521" transform="translate(-3431.351 -5749.8)" fill="none" stroke="#b5b5b5" stroke-linecap="round" stroke-linejoin="round" stroke-width="1.5"/>
      <line id="Line_151" data-name="Line 151" y1="4.312" x2="4.312" transform="translate(13.543)" fill="none" stroke="#b5b5b5" stroke-linecap="round" stroke-linejoin="round" stroke-width="1.5"/>
      <line id="Line_152" data-name="Line 152" y1="3.522" x2="3.522" transform="translate(7.167 7.167)" fill="none" stroke="#b5b5b5" stroke-linecap="round" stroke-linejoin="round" stroke-width="1.5"/>
      <line id="Line_153" data-name="Line 153" x1="4.312" y2="4.312" transform="translate(0 13.543)" fill="none" stroke="#b5b5b5" stroke-linecap="round" stroke-linejoin="round" stroke-width="1.5"/>
      <line id="Line_154" data-name="Line 154" x1="2.855" y2="2.855" transform="translate(4.312 10.689)" fill="none" stroke="#b5b5b5" stroke-linecap="round" stroke-linejoin="round" stroke-width="1.5"/>
      <line id="Line_155" data-name="Line 155" x1="2.855" y2="2.855" transform="translate(10.689 4.312)" fill="none" stroke="#b5b5b5" stroke-linecap="round" stroke-linejoin="round" stroke-width="1.5"/>
    </g>
  </g>
</svg>
