<svg id="ic-ava" xmlns="http://www.w3.org/2000/svg" xmlns:xlink="http://www.w3.org/1999/xlink" width="40" height="40" viewBox="0 0 40 40">
  <defs>
    <clipPath id="clip-path">
      <path id="Path_14520" data-name="Path 14520" d="M12,0H28A12,12,0,0,1,40,12V28A12,12,0,0,1,28,40H12A12,12,0,0,1,0,28V12A12,12,0,0,1,12,0Z" fill="#0039d6"/>
    </clipPath>
  </defs>
  <path id="Path_14519" data-name="Path 14519" d="M12,0H28A12,12,0,0,1,40,12V28A12,12,0,0,1,28,40H12A12,12,0,0,1,0,28V12A12,12,0,0,1,12,0Z" fill="#1e1f21"/>
  <g id="Mask_Group_5" data-name="Mask Group 5" clip-path="url(#clip-path)">
    <path id="Path_14516" data-name="Path 14516" d="M24.3-.653a1.03,1.03,0,0,1,.2-.7.563.563,0,0,1,.416-.219.563.563,0,0,1,.416.219,1.03,1.03,0,0,1,.2.7A5.361,5.361,0,0,1,25.086,1.1a14.984,14.984,0,0,1-1.248,2.452,22.821,22.821,0,0,1-1.97,2.693,15.957,15.957,0,0,1-2.649,2.5,13.81,13.81,0,0,1-3.284,1.817,10.385,10.385,0,0,1-3.81.7,10.274,10.274,0,0,1-5.036-1.139,9.307,9.307,0,0,1-3.35-3.131A14.083,14.083,0,0,1,1.856,2.3a27.037,27.037,0,0,1-.591-5.8A41.356,41.356,0,0,1,1.7-9.389,57.267,57.267,0,0,1,2.928-15.5H-4.034Q-6.355-11.951-8.61-8.623A63.606,63.606,0,0,1-13.1-2.711a24.983,24.983,0,0,1-4.445,4.138,7.627,7.627,0,0,1-4.4,1.555,6.868,6.868,0,0,1-3.306-.766A6.922,6.922,0,0,1-27.636.091a9.765,9.765,0,0,1-1.445-3.153,14.823,14.823,0,0,1-.482-3.853,19.893,19.893,0,0,1,.591-4.707,21.144,21.144,0,0,1,1.8-4.751A22.853,22.853,0,0,1-24.155-20.8a19.427,19.427,0,0,1,4.291-3.678,21.869,21.869,0,0,1,5.583-2.5,24.18,24.18,0,0,1,6.875-.92.54.54,0,0,1,.482.285,1.113,1.113,0,0,1,.175.591.624.624,0,0,1-.109.372.426.426,0,0,1-.372.153,21.7,21.7,0,0,0-6.415.9,19.961,19.961,0,0,0-5.189,2.408,18.683,18.683,0,0,0-3.963,3.5,21.517,21.517,0,0,0-2.8,4.2,20.65,20.65,0,0,0-1.664,4.488,18.559,18.559,0,0,0-.547,4.335,13.342,13.342,0,0,0,.372,3.24A8.272,8.272,0,0,0-26.323-.806,5.535,5.535,0,0,0-24.483.945a4.97,4.97,0,0,0,2.54.635A5.561,5.561,0,0,0-18.55.179a23.865,23.865,0,0,0,3.678-3.766q1.9-2.365,3.963-5.452T-6.661-15.5H-9.814q-.525,0-.525-.569a1.193,1.193,0,0,1,.2-.657q.2-.307.416-.307h4.072q1.708-2.627,3.481-5.233t3.634-4.97q1.861-2.365,3.788-4.4A31.327,31.327,0,0,1,9.19-35.181a18.849,18.849,0,0,1,4.072-2.365,10.876,10.876,0,0,1,4.2-.854.863.863,0,0,1,.723.307,1.044,1.044,0,0,1,.241.657.841.841,0,0,1-.2.547.719.719,0,0,1-.591.241,3.446,3.446,0,0,0-2.43,1.6,23.025,23.025,0,0,0-2.605,4.269,55.945,55.945,0,0,0-2.54,6.174Q8.84-21.1,7.9-17.293T6.388-9.586a50.742,50.742,0,0,0-.569,7.313,29.333,29.333,0,0,0,.372,4.817A13.605,13.605,0,0,0,7.373,6.4,6.655,6.655,0,0,0,9.5,8.937a5.434,5.434,0,0,0,3.2.92,8.974,8.974,0,0,0,3.5-.679,11.42,11.42,0,0,0,2.89-1.73,14.722,14.722,0,0,0,2.255-2.321A20.384,20.384,0,0,0,22.984,2.7a13.614,13.614,0,0,0,.985-2.08A4.642,4.642,0,0,0,24.3-.653ZM3.322-17.03q.7-2.627,1.642-5.145T6.979-26.97A45.667,45.667,0,0,1,9.234-31.2a26.353,26.353,0,0,1,2.452-3.437,24.474,24.474,0,0,0-3.81,3.153,48.8,48.8,0,0,0-3.722,4.2Q2.315-24.956.52-22.328t-3.547,5.3H3.235Z" transform="translate(22.021 38.399)" fill="#fff"/>
  </g>
</svg>
