<svg id="ic-business-cloud" xmlns="http://www.w3.org/2000/svg" width="40" height="40" viewBox="0 0 40 40">
  <path id="Path_14526" data-name="Path 14526" d="M12,0H28A12,12,0,0,1,40,12V28A12,12,0,0,1,28,40H12A12,12,0,0,1,0,28V12A12,12,0,0,1,12,0Z" fill="#1e1f21"/>
  <path id="Path_1405" data-name="Path 1405" d="M280.433,14.837a9.027,9.027,0,0,1-12.477,0,8.321,8.321,0,0,1-2.544-6.184,8.324,8.324,0,0,1,2.546-6.177,9.026,9.026,0,0,1,12.477,0,8.324,8.324,0,0,1,2.543,6.177,8.322,8.322,0,0,1-2.546,6.182Zm-9.136-3.3a4.093,4.093,0,1,0-1.149-2.888,3.9,3.9,0,0,0,1.15,2.886Z" transform="translate(-254.194 11.343)" fill="#fff"/>
</svg>
