<svg id="ic-pali" xmlns="http://www.w3.org/2000/svg" xmlns:xlink="http://www.w3.org/1999/xlink" width="40" height="40" viewBox="0 0 40 40">
  <defs>
    <clipPath id="clip-path">
      <path id="Path_14521" data-name="Path 14521" d="M12,0H28A12,12,0,0,1,40,12V28A12,12,0,0,1,28,40H12A12,12,0,0,1,0,28V12A12,12,0,0,1,12,0Z" fill="#1e1f21"/>
    </clipPath>
  </defs>
  <path id="Path_14517" data-name="Path 14517" d="M12,0H28A12,12,0,0,1,40,12V28A12,12,0,0,1,28,40H12A12,12,0,0,1,0,28V12A12,12,0,0,1,12,0Z" fill="#1e1f21"/>
  <g id="Mask_Group_6" data-name="Mask Group 6" clip-path="url(#clip-path)">
    <g id="Group_11432" data-name="Group 11432" transform="translate(-244.397 -7.473)">
      <path id="Path_9185" data-name="Path 9185" d="M276.1,67.189H252.7V38.6h23.4Zm-21.675-1.721h19.954V40.321H254.421Z" transform="translate(0 -13.617)" fill="#fff"/>
      <path id="Path_9186" data-name="Path 9186" d="M280.305,90.517A7.553,7.553,0,0,1,275.2,88.5l.788-.846a6.338,6.338,0,0,0,8.693-.058l.788.817a7.531,7.531,0,0,1-4.9,2.071Z" transform="translate(-15.937 -48.323)" fill="#fff"/>
      <path id="Path_9187" data-name="Path 9187" d="M283.061,24.2h-1.225a6.207,6.207,0,0,0-1.167-1.809,5.174,5.174,0,0,0-7.264-.671,8.6,8.6,0,0,0-.729.729,6.583,6.583,0,0,0-1.079,1.721h-1.2a8.092,8.092,0,0,1,1.429-2.48,6.33,6.33,0,0,1,8.868-.9,6.91,6.91,0,0,1,.817.788A7.524,7.524,0,0,1,283.061,24.2Z" transform="translate(-12.536)" fill="#fff"/>
    </g>
  </g>
</svg>
