<svg xmlns="http://www.w3.org/2000/svg" width="17.242" height="17.268" viewBox="0 0 17.242 17.268">
  <g id="ic-switch-app" transform="translate(-160 -184)">
    <path id="Path_8710" data-name="Path 8710" d="M3.695,3.625H1.232A1.232,1.232,0,0,0,0,4.857V7.32A1.232,1.232,0,0,0,1.232,8.551H3.695A1.232,1.232,0,0,0,4.926,7.32V4.857A1.232,1.232,0,0,0,3.695,3.625Zm6.158,0H7.39A1.232,1.232,0,0,0,6.158,4.857V7.32A1.232,1.232,0,0,0,7.39,8.551H9.853A1.232,1.232,0,0,0,11.084,7.32V4.857A1.232,1.232,0,0,0,9.853,3.625Zm6.158,0H13.547a1.232,1.232,0,0,0-1.232,1.232V7.32a1.232,1.232,0,0,0,1.232,1.232h2.463A1.232,1.232,0,0,0,17.242,7.32V4.857A1.232,1.232,0,0,0,16.011,3.625Z" transform="translate(160 180.375)" fill="#72757e"/>
    <path id="Path_8711" data-name="Path 8711" d="M3.695,15.611H1.232A1.232,1.232,0,0,0,0,16.842v2.463a1.232,1.232,0,0,0,1.232,1.232H3.695a1.232,1.232,0,0,0,1.232-1.232V16.842A1.232,1.232,0,0,0,3.695,15.611Zm6.158,0H7.39a1.232,1.232,0,0,0-1.232,1.232v2.463A1.232,1.232,0,0,0,7.39,20.537H9.853a1.232,1.232,0,0,0,1.232-1.232V16.842A1.232,1.232,0,0,0,9.853,15.611Zm6.158,0H13.547a1.232,1.232,0,0,0-1.232,1.232v2.463a1.232,1.232,0,0,0,1.232,1.232h2.463a1.232,1.232,0,0,0,1.232-1.232V16.842A1.232,1.232,0,0,0,16.011,15.611Z" transform="translate(160 174.56)" fill="#72757e"/>
    <path id="Path_8712" data-name="Path 8712" d="M3.695,15.611H1.232A1.232,1.232,0,0,0,0,16.842v2.463a1.232,1.232,0,0,0,1.232,1.232H3.695a1.232,1.232,0,0,0,1.232-1.232V16.842A1.232,1.232,0,0,0,3.695,15.611Zm6.158,0H7.39a1.232,1.232,0,0,0-1.232,1.232v2.463A1.232,1.232,0,0,0,7.39,20.537H9.853a1.232,1.232,0,0,0,1.232-1.232V16.842A1.232,1.232,0,0,0,9.853,15.611Zm6.158,0H13.547a1.232,1.232,0,0,0-1.232,1.232v2.463a1.232,1.232,0,0,0,1.232,1.232h2.463a1.232,1.232,0,0,0,1.232-1.232V16.842A1.232,1.232,0,0,0,16.011,15.611Z" transform="translate(160 180.731)" fill="#72757e"/>
  </g>
</svg>
